<mxfile host="app.diagrams.net" modified="2024-04-04T09:01:57.800Z" agent="Mozilla/5.0 (Windows NT 10.0; Win64; x64) AppleWebKit/537.36 (KHTML, like Gecko) Chrome/123.0.0.0 Safari/537.36" version="24.0.6" etag="cMF15yXNEvtHsKksGvfa" type="github">
  <diagram name="Page-1" id="HQmQx4nR0Vcg_3JT3nBb">
    <mxGraphModel>
      <root>
        <mxCell id="0" />
        <mxCell id="1" parent="0" />
      </root>
    </mxGraphModel>
  </diagram>
</mxfile>
